    <svg xmlns="http://www.w3.org/2000/svg" class="masthead-emblem" viewBox="0 0 240 130" role="img" aria-label="United States Capitol, Washington, D.C.">
      <title>United States Capitol</title>
      <g stroke="#2b211a" fill="none" stroke-linecap="round" stroke-linejoin="round">
        <!-- STATUE OF FREEDOM atop the dome -->
        <g stroke-width="0.7">
          <circle cx="120" cy="6" r="1.5" fill="#2b211a" stroke="none" />
          <line x1="120" y1="7" x2="120" y2="14" />
          <line x1="117" y1="11" x2="123" y2="11" />
        </g>
        <!-- LANTERN (small cupola) -->
        <g stroke-width="0.7">
          <rect x="115" y="15" width="10" height="9" />
          <line x1="120" y1="15" x2="120" y2="24" />
          <line x1="113" y1="24" x2="127" y2="24" />
        </g>
        <!-- MAIN DOME -->
        <g stroke-width="1.2">
          <path d="M 92 56 A 28 32 0 0 1 148 56" />
        </g>
        <!-- dome ribs -->
        <g stroke-width="0.55" opacity="0.85">
          <line x1="120" y1="24" x2="120" y2="56" />
          <line x1="120" y1="24" x2="105" y2="56" />
          <line x1="120" y1="24" x2="135" y2="56" />
          <line x1="120" y1="24" x2="92"  y2="56" />
          <line x1="120" y1="24" x2="148" y2="56" />
          <line x1="120" y1="24" x2="98"  y2="56" />
          <line x1="120" y1="24" x2="142" y2="56" />
          <line x1="120" y1="24" x2="112" y2="56" />
          <line x1="120" y1="24" x2="128" y2="56" />
        </g>
        <!-- horizontal latitude curves on dome -->
        <g stroke-width="0.4" opacity="0.6">
          <path d="M 99 35 Q 120 31 141 35" />
          <path d="M 95 45 Q 120 41 145 45" />
        </g>
        <!-- COLONNADE (peristyle) around base of dome -->
        <g stroke-width="0.7">
          <line x1="88" y1="56" x2="152" y2="56" />
          <line x1="88" y1="68" x2="152" y2="68" />
          <line x1="88" y1="56" x2="88" y2="68" />
          <line x1="152" y1="56" x2="152" y2="68" />
          <line x1="94"  y1="56" x2="94"  y2="68" />
          <line x1="100" y1="56" x2="100" y2="68" />
          <line x1="106" y1="56" x2="106" y2="68" />
          <line x1="112" y1="56" x2="112" y2="68" />
          <line x1="118" y1="56" x2="118" y2="68" />
          <line x1="122" y1="56" x2="122" y2="68" />
          <line x1="128" y1="56" x2="128" y2="68" />
          <line x1="134" y1="56" x2="134" y2="68" />
          <line x1="140" y1="56" x2="140" y2="68" />
          <line x1="146" y1="56" x2="146" y2="68" />
        </g>
        <!-- LOWER DRUM with arched windows -->
        <g stroke-width="0.7">
          <line x1="84" y1="68" x2="156" y2="68" />
          <line x1="84" y1="84" x2="156" y2="84" />
          <line x1="84" y1="68" x2="84" y2="84" />
          <line x1="156" y1="68" x2="156" y2="84" />
          <path d="M 90 84 L 90 76 A 4 4 0 0 1 98 76 L 98 84" />
          <path d="M 104 84 L 104 76 A 4 4 0 0 1 112 76 L 112 84" />
          <path d="M 116 84 L 116 76 A 4 4 0 0 1 124 76 L 124 84" />
          <path d="M 128 84 L 128 76 A 4 4 0 0 1 136 76 L 136 84" />
          <path d="M 142 84 L 142 76 A 4 4 0 0 1 150 76 L 150 84" />
        </g>
        <!-- PEDIMENT and rosette -->
        <g stroke-width="0.9">
          <path d="M 72 96 L 120 84 L 168 96 Z" />
          <line x1="72" y1="96" x2="168" y2="96" />
          <circle cx="120" cy="92" r="1.5" />
        </g>
        <!-- COLUMNS (Corinthian, eight) -->
        <g stroke-width="0.7">
          <line x1="80"  y1="96" x2="80"  y2="114" />
          <line x1="92"  y1="96" x2="92"  y2="114" />
          <line x1="104" y1="96" x2="104" y2="114" />
          <line x1="114" y1="96" x2="114" y2="114" />
          <line x1="126" y1="96" x2="126" y2="114" />
          <line x1="136" y1="96" x2="136" y2="114" />
          <line x1="148" y1="96" x2="148" y2="114" />
          <line x1="160" y1="96" x2="160" y2="114" />
          <!-- capital marks -->
          <line x1="78"  y1="98" x2="82"  y2="98" />
          <line x1="90"  y1="98" x2="94"  y2="98" />
          <line x1="102" y1="98" x2="106" y2="98" />
          <line x1="112" y1="98" x2="116" y2="98" />
          <line x1="124" y1="98" x2="128" y2="98" />
          <line x1="134" y1="98" x2="138" y2="98" />
          <line x1="146" y1="98" x2="150" y2="98" />
          <line x1="158" y1="98" x2="162" y2="98" />
        </g>
        <!-- STEPS in front -->
        <g stroke-width="0.8">
          <line x1="68" y1="114" x2="172" y2="114" />
          <line x1="64" y1="118" x2="176" y2="118" />
          <line x1="60" y1="122" x2="180" y2="122" />
        </g>
        <!-- WINGS -->
        <g stroke-width="0.7">
          <line x1="14" y1="100" x2="72" y2="100" />
          <line x1="14" y1="100" x2="14" y2="118" />
          <line x1="14" y1="118" x2="72" y2="118" />
          <line x1="22" y1="102" x2="22" y2="118" />
          <line x1="32" y1="102" x2="32" y2="118" />
          <line x1="42" y1="102" x2="42" y2="118" />
          <line x1="52" y1="102" x2="52" y2="118" />
          <line x1="62" y1="102" x2="62" y2="118" />
          <line x1="14" y1="106" x2="72" y2="106" />
          <line x1="14" y1="112" x2="72" y2="112" />
          <line x1="168" y1="100" x2="226" y2="100" />
          <line x1="226" y1="100" x2="226" y2="118" />
          <line x1="168" y1="118" x2="226" y2="118" />
          <line x1="178" y1="102" x2="178" y2="118" />
          <line x1="188" y1="102" x2="188" y2="118" />
          <line x1="198" y1="102" x2="198" y2="118" />
          <line x1="208" y1="102" x2="208" y2="118" />
          <line x1="218" y1="102" x2="218" y2="118" />
          <line x1="168" y1="106" x2="226" y2="106" />
          <line x1="168" y1="112" x2="226" y2="112" />
        </g>
        <!-- GROUND -->
        <g stroke-width="1.2">
          <line x1="6" y1="125" x2="234" y2="125" />
        </g>
      </g>
    </svg>
