<svg xmlns="http://www.w3.org/2000/svg" viewBox="0 0 420 280">
<rect x="18" y="20" width="180" height="180" rx="2" fill="none" stroke="#c8b894" stroke-width="0.8" stroke-dasharray="2.5 2.5" opacity="0.7"/>
<rect x="222" y="20" width="180" height="180" rx="2" fill="none" stroke="#c8b894" stroke-width="0.8" stroke-dasharray="2.5 2.5" opacity="0.7"/>
<g>
<g stroke="#2b211a" stroke-width="2.2" stroke-linecap="round" fill="none">
<line x1="62" y1="76" x2="96" y2="98"/>
<line x1="96" y1="98" x2="130" y2="76"/>
<line x1="99.3" y1="103.0" x2="133.3" y2="81.0"/>
<line x1="62" y1="76" x2="96" y2="144"/>
<line x1="96" y1="98" x2="96" y2="144"/>
<line x1="96" y1="144" x2="130" y2="162"/>
<line x1="96" y1="144" x2="62" y2="162"/>
<line x1="130" y1="76" x2="162" y2="98"/>
<line x1="130" y1="162" x2="162" y2="144"/>
<line x1="132.9" y1="167.2" x2="164.9" y2="149.2"/>
<line x1="162" y1="98" x2="162" y2="144"/>
</g>
<g fill="#f5efde" stroke="#2b211a" stroke-width="1.9">
<circle cx="62" cy="76" r="7.5"/>
<circle cx="96" cy="98" r="7.5"/>
<circle cx="130" cy="76" r="7.5"/>
<circle cx="96" cy="144" r="7.5"/>
<circle cx="130" cy="162" r="7.5"/>
<circle cx="62" cy="162" r="7.5"/>
<circle cx="162" cy="98" r="7.5"/>
<circle cx="162" cy="144" r="7.5"/>
</g></g>
<g>
<g stroke="#2b211a" stroke-width="2.2" stroke-linecap="round" fill="none">
<line x1="312" y1="54" x2="278" y2="88"/>
<line x1="307.8" y1="49.8" x2="273.8" y2="83.8"/>
<line x1="312" y1="54" x2="346" y2="88"/>
<line x1="278" y1="88" x2="278" y2="130"/>
<line x1="346" y1="88" x2="346" y2="130"/>
<line x1="340.0" y1="88.0" x2="340.0" y2="130.0"/>
<line x1="278" y1="130" x2="312" y2="160"/>
<line x1="346" y1="130" x2="312" y2="160"/>
<line x1="278" y1="88" x2="250" y2="106"/>
<line x1="346" y1="88" x2="374" y2="106"/>
</g>
<g fill="#f5efde" stroke="#2b211a" stroke-width="1.9">
<circle cx="312" cy="54" r="7.5"/>
<circle cx="278" cy="88" r="7.5"/>
<circle cx="346" cy="88" r="7.5"/>
<circle cx="278" cy="130" r="7.5"/>
<circle cx="346" cy="130" r="7.5"/>
<circle cx="312" cy="160" r="7.5"/>
<circle cx="250" cy="106" r="7.5"/>
<circle cx="374" cy="106" r="7.5"/>
</g></g>
<g transform="translate(108,240)"><rect x="-39" y="-15" width="78" height="24" rx="2" fill="#6c1d1a"/><text x="0" y="3" fill="#f5efde" font-family="Alegreya SC, EB Garamond, Georgia, serif" font-size="15" letter-spacing="1.6" text-anchor="middle">active</text></g>
<g transform="translate(312,240)"><rect x="-46" y="-15" width="92" height="24" rx="2" fill="#2b211a"/><text x="0" y="3" fill="#f5efde" font-family="Alegreya SC, EB Garamond, Georgia, serif" font-size="15" letter-spacing="1.6" text-anchor="middle">inactive</text></g>
</svg>