<svg xmlns="http://www.w3.org/2000/svg" viewBox="0 0 420 280">
<rect x="18" y="20" width="180" height="180" rx="2" fill="none" stroke="#c8b894" stroke-width="0.8" stroke-dasharray="2.5 2.5" opacity="0.7"/>
<rect x="222" y="20" width="180" height="180" rx="2" fill="none" stroke="#c8b894" stroke-width="0.8" stroke-dasharray="2.5 2.5" opacity="0.7"/>
<g>
<g stroke="#2b211a" stroke-width="2.2" stroke-linecap="round" fill="none">
<line x1="108" y1="52" x2="64" y2="84"/>
<line x1="108" y1="52" x2="152" y2="84"/>
<line x1="104.5" y1="56.9" x2="148.5" y2="88.9"/>
<line x1="64" y1="84" x2="64" y2="138"/>
<line x1="152" y1="84" x2="152" y2="138"/>
<line x1="64" y1="138" x2="108" y2="170"/>
<line x1="60.5" y1="142.9" x2="104.5" y2="174.9"/>
<line x1="152" y1="138" x2="108" y2="170"/>
<line x1="64" y1="84" x2="152" y2="84"/>
</g>
<g fill="#f5efde" stroke="#2b211a" stroke-width="1.9">
<circle cx="108" cy="52" r="7.5"/>
<circle cx="64" cy="84" r="7.5"/>
<circle cx="152" cy="84" r="7.5"/>
<circle cx="64" cy="138" r="7.5"/>
<circle cx="152" cy="138" r="7.5"/>
<circle cx="108" cy="170" r="7.5"/>
</g></g>
<g>
<g stroke="#2b211a" stroke-width="2.2" stroke-linecap="round" fill="none">
<line x1="262" y1="78" x2="312" y2="78"/>
<line x1="262.0" y1="84.0" x2="312.0" y2="84.0"/>
<line x1="312" y1="78" x2="362" y2="78"/>
<line x1="312" y1="78" x2="312" y2="126"/>
<line x1="312" y1="126" x2="312" y2="170"/>
<line x1="306.0" y1="126.0" x2="306.0" y2="170.0"/>
</g>
<g fill="#f5efde" stroke="#2b211a" stroke-width="1.9">
<circle cx="262" cy="78" r="7.5"/>
<circle cx="312" cy="78" r="7.5"/>
<circle cx="362" cy="78" r="7.5"/>
<circle cx="312" cy="126" r="7.5"/>
<circle cx="312" cy="170" r="7.5"/>
</g></g>
<g transform="translate(108,240)"><rect x="-50" y="-15" width="100" height="24" rx="2" fill="#6c1d1a"/><text x="0" y="3" fill="#f5efde" font-family="Alegreya SC, EB Garamond, Georgia, serif" font-size="15" letter-spacing="1.6" text-anchor="middle">mutagenic</text></g>
<g transform="translate(312,240)"><rect x="-46" y="-15" width="92" height="24" rx="2" fill="#2b211a"/><text x="0" y="3" fill="#f5efde" font-family="Alegreya SC, EB Garamond, Georgia, serif" font-size="15" letter-spacing="1.6" text-anchor="middle">non-mut.</text></g>
</svg>