<svg xmlns="http://www.w3.org/2000/svg" viewBox="0 0 420 280">
<rect x="16" y="48" width="124" height="124" rx="2" fill="none" stroke="#c8b894" stroke-width="0.8" stroke-dasharray="2.5 2.5" opacity="0.7"/>
<rect x="148" y="48" width="124" height="124" rx="2" fill="none" stroke="#c8b894" stroke-width="0.8" stroke-dasharray="2.5 2.5" opacity="0.7"/>
<rect x="280" y="48" width="124" height="124" rx="2" fill="none" stroke="#c8b894" stroke-width="0.8" stroke-dasharray="2.5 2.5" opacity="0.7"/>
<g fill="#2b211a" stroke="none">
<circle cx="126.9" cy="110.3" r="2.2"/>
<circle cx="128.3" cy="117.0" r="2.2"/>
<circle cx="124.6" cy="124.7" r="2.2"/>
<circle cx="123.5" cy="132.7" r="2.2"/>
<circle cx="118.2" cy="137.0" r="2.2"/>
<circle cx="115.3" cy="144.4" r="2.2"/>
<circle cx="110.6" cy="150.0" r="2.2"/>
<circle cx="102.9" cy="153.1" r="2.2"/>
<circle cx="98.6" cy="156.3" r="2.2"/>
<circle cx="88.4" cy="157.7" r="2.2"/>
<circle cx="81.8" cy="160.0" r="2.2"/>
<circle cx="74.0" cy="159.8" r="2.2"/>
<circle cx="67.1" cy="159.4" r="2.2"/>
<circle cx="60.7" cy="156.7" r="2.2"/>
<circle cx="51.4" cy="153.9" r="2.2"/>
<circle cx="45.5" cy="148.9" r="2.2"/>
<circle cx="40.0" cy="144.0" r="2.2"/>
<circle cx="36.0" cy="138.4" r="2.2"/>
<circle cx="35.9" cy="131.7" r="2.2"/>
<circle cx="31.0" cy="123.5" r="2.2"/>
<circle cx="28.3" cy="118.0" r="2.2"/>
<circle cx="27.9" cy="110.3" r="2.2"/>
<circle cx="28.7" cy="101.6" r="2.2"/>
<circle cx="30.7" cy="94.5" r="2.2"/>
<circle cx="34.6" cy="87.9" r="2.2"/>
<circle cx="37.3" cy="81.8" r="2.2"/>
<circle cx="42.2" cy="75.4" r="2.2"/>
<circle cx="47.7" cy="70.8" r="2.2"/>
<circle cx="54.1" cy="67.3" r="2.2"/>
<circle cx="59.9" cy="62.8" r="2.2"/>
<circle cx="67.6" cy="61.7" r="2.2"/>
<circle cx="75.7" cy="59.8" r="2.2"/>
<circle cx="82.2" cy="60.6" r="2.2"/>
<circle cx="89.4" cy="61.4" r="2.2"/>
<circle cx="96.4" cy="62.9" r="2.2"/>
<circle cx="102.1" cy="66.3" r="2.2"/>
<circle cx="109.7" cy="72.3" r="2.2"/>
<circle cx="115.5" cy="76.9" r="2.2"/>
<circle cx="120.0" cy="82.5" r="2.2"/>
<circle cx="123.2" cy="89.0" r="2.2"/>
<circle cx="127.4" cy="95.0" r="2.2"/>
<circle cx="126.8" cy="104.3" r="2.2"/>
<circle cx="106.1" cy="113.6" r="2.2"/>
<circle cx="105.2" cy="118.0" r="2.2"/>
<circle cx="103.8" cy="126.0" r="2.2"/>
<circle cx="98.2" cy="130.2" r="2.2"/>
<circle cx="93.3" cy="132.8" r="2.2"/>
<circle cx="87.5" cy="136.6" r="2.2"/>
<circle cx="82.4" cy="138.4" r="2.2"/>
<circle cx="75.3" cy="138.9" r="2.2"/>
<circle cx="68.5" cy="137.2" r="2.2"/>
<circle cx="64.3" cy="133.7" r="2.2"/>
<circle cx="57.0" cy="129.3" r="2.2"/>
<circle cx="54.7" cy="125.6" r="2.2"/>
<circle cx="52.9" cy="118.8" r="2.2"/>
<circle cx="50.2" cy="114.0" r="2.2"/>
<circle cx="50.0" cy="105.3" r="2.2"/>
<circle cx="52.1" cy="102.9" r="2.2"/>
<circle cx="54.9" cy="94.7" r="2.2"/>
<circle cx="57.6" cy="90.6" r="2.2"/>
<circle cx="64.8" cy="87.0" r="2.2"/>
<circle cx="68.5" cy="84.9" r="2.2"/>
<circle cx="74.5" cy="83.7" r="2.2"/>
<circle cx="80.2" cy="81.8" r="2.2"/>
<circle cx="87.5" cy="84.6" r="2.2"/>
<circle cx="93.1" cy="86.4" r="2.2"/>
<circle cx="96.1" cy="89.4" r="2.2"/>
<circle cx="101.0" cy="94.4" r="2.2"/>
<circle cx="104.8" cy="100.2" r="2.2"/>
<circle cx="106.4" cy="106.6" r="2.2"/>
</g>
<g fill="#2b211a" stroke="none">
<circle cx="259.2" cy="110.3" r="2.2"/>
<circle cx="260.4" cy="119.4" r="2.2"/>
<circle cx="256.7" cy="124.2" r="2.2"/>
<circle cx="251.9" cy="135.4" r="2.2"/>
<circle cx="254.7" cy="137.8" r="2.2"/>
<circle cx="245.6" cy="141.2" r="2.2"/>
<circle cx="241.6" cy="149.6" r="2.2"/>
<circle cx="240.0" cy="153.9" r="2.2"/>
<circle cx="226.5" cy="150.9" r="2.2"/>
<circle cx="224.4" cy="159.2" r="2.2"/>
<circle cx="210.0" cy="160.3" r="2.2"/>
<circle cx="202.6" cy="167.9" r="2.2"/>
<circle cx="201.4" cy="160.1" r="2.2"/>
<circle cx="191.3" cy="151.6" r="2.2"/>
<circle cx="184.7" cy="149.7" r="2.2"/>
<circle cx="180.2" cy="144.2" r="2.2"/>
<circle cx="171.3" cy="146.8" r="2.2"/>
<circle cx="172.5" cy="135.4" r="2.2"/>
<circle cx="161.4" cy="133.7" r="2.2"/>
<circle cx="164.2" cy="122.5" r="2.2"/>
<circle cx="159.0" cy="115.9" r="2.2"/>
<circle cx="157.3" cy="108.4" r="2.2"/>
<circle cx="163.4" cy="104.1" r="2.2"/>
<circle cx="167.0" cy="95.1" r="2.2"/>
<circle cx="164.6" cy="86.0" r="2.2"/>
<circle cx="168.4" cy="78.8" r="2.2"/>
<circle cx="169.3" cy="77.6" r="2.2"/>
<circle cx="182.1" cy="72.8" r="2.2"/>
<circle cx="188.1" cy="67.3" r="2.2"/>
<circle cx="190.1" cy="63.7" r="2.2"/>
<circle cx="198.0" cy="58.7" r="2.2"/>
<circle cx="202.4" cy="56.7" r="2.2"/>
<circle cx="213.7" cy="60.5" r="2.2"/>
<circle cx="220.0" cy="64.5" r="2.2"/>
<circle cx="228.7" cy="64.8" r="2.2"/>
<circle cx="237.8" cy="64.8" r="2.2"/>
<circle cx="236.6" cy="72.6" r="2.2"/>
<circle cx="245.1" cy="79.0" r="2.2"/>
<circle cx="252.1" cy="84.1" r="2.2"/>
<circle cx="256.8" cy="83.5" r="2.2"/>
<circle cx="259.4" cy="93.7" r="2.2"/>
<circle cx="257.7" cy="101.5" r="2.2"/>
<circle cx="220.0" cy="121.5" r="2.2"/>
<circle cx="223.1" cy="88.4" r="2.2"/>
<circle cx="202.3" cy="79.1" r="2.2"/>
<circle cx="208.7" cy="117.8" r="2.2"/>
<circle cx="200.1" cy="113.2" r="2.2"/>
<circle cx="213.0" cy="123.1" r="2.2"/>
<circle cx="199.3" cy="99.2" r="2.2"/>
<circle cx="200.1" cy="132.8" r="2.2"/>
<circle cx="224.2" cy="108.4" r="2.2"/>
<circle cx="212.9" cy="111.5" r="2.2"/>
<circle cx="212.6" cy="107.3" r="2.2"/>
<circle cx="205.7" cy="93.7" r="2.2"/>
<circle cx="201.7" cy="131.5" r="2.2"/>
<circle cx="217.0" cy="110.8" r="2.2"/>
<circle cx="207.2" cy="110.8" r="2.2"/>
<circle cx="214.6" cy="101.6" r="2.2"/>
<circle cx="212.6" cy="113.1" r="2.2"/>
<circle cx="200.3" cy="99.7" r="2.2"/>
<circle cx="197.0" cy="96.2" r="2.2"/>
<circle cx="221.6" cy="79.3" r="2.2"/>
<circle cx="206.5" cy="102.1" r="2.2"/>
<circle cx="201.9" cy="111.3" r="2.2"/>
<circle cx="224.7" cy="111.0" r="2.2"/>
<circle cx="208.2" cy="102.0" r="2.2"/>
<circle cx="208.3" cy="121.9" r="2.2"/>
<circle cx="204.9" cy="95.1" r="2.2"/>
<circle cx="193.6" cy="95.6" r="2.2"/>
<circle cx="191.9" cy="124.3" r="2.2"/>
<circle cx="214.6" cy="106.9" r="2.2"/>
<circle cx="229.0" cy="101.4" r="2.2"/>
<circle cx="219.8" cy="120.4" r="2.2"/>
<circle cx="189.9" cy="89.8" r="2.2"/>
<circle cx="197.9" cy="121.8" r="2.2"/>
<circle cx="226.8" cy="94.0" r="2.2"/>
<circle cx="223.6" cy="105.0" r="2.2"/>
<circle cx="204.9" cy="102.8" r="2.2"/>
<circle cx="205.8" cy="86.4" r="2.2"/>
<circle cx="197.0" cy="93.9" r="2.2"/>
<circle cx="216.4" cy="137.2" r="2.2"/>
<circle cx="245.5" cy="105.6" r="2.2"/>
<circle cx="187.6" cy="104.7" r="2.2"/>
<circle cx="197.8" cy="135.8" r="2.2"/>
</g>
<g fill="#2b211a" stroke="none">
<circle cx="313.0" cy="150.7" r="2.1"/>
<circle cx="327.5" cy="115.6" r="2.1"/>
<circle cx="346.6" cy="70.2" r="2.1"/>
<circle cx="379.1" cy="116.7" r="2.1"/>
<circle cx="386.7" cy="129.0" r="2.1"/>
<circle cx="364.5" cy="152.7" r="2.1"/>
<circle cx="349.4" cy="79.6" r="2.1"/>
<circle cx="354.0" cy="126.3" r="2.1"/>
<circle cx="335.6" cy="71.7" r="2.1"/>
<circle cx="323.6" cy="64.1" r="2.1"/>
<circle cx="289.5" cy="112.4" r="2.1"/>
<circle cx="387.1" cy="137.1" r="2.1"/>
<circle cx="316.9" cy="105.8" r="2.1"/>
<circle cx="338.1" cy="81.2" r="2.1"/>
<circle cx="299.3" cy="103.8" r="2.1"/>
<circle cx="295.9" cy="91.7" r="2.1"/>
<circle cx="319.9" cy="130.5" r="2.1"/>
<circle cx="382.3" cy="81.0" r="2.1"/>
<circle cx="356.6" cy="90.1" r="2.1"/>
<circle cx="289.5" cy="101.9" r="2.1"/>
<circle cx="354.4" cy="149.0" r="2.1"/>
<circle cx="302.5" cy="109.2" r="2.1"/>
<circle cx="383.4" cy="117.3" r="2.1"/>
<circle cx="289.1" cy="104.7" r="2.1"/>
<circle cx="352.8" cy="77.6" r="2.1"/>
<circle cx="301.6" cy="112.3" r="2.1"/>
<circle cx="383.1" cy="128.1" r="2.1"/>
<circle cx="308.0" cy="130.4" r="2.1"/>
<circle cx="388.8" cy="85.6" r="2.1"/>
<circle cx="314.4" cy="114.7" r="2.1"/>
<circle cx="324.4" cy="117.8" r="2.1"/>
<circle cx="381.6" cy="81.5" r="2.1"/>
<circle cx="326.7" cy="144.0" r="2.1"/>
<circle cx="324.6" cy="94.1" r="2.1"/>
<circle cx="377.7" cy="147.7" r="2.1"/>
<circle cx="389.2" cy="116.8" r="2.1"/>
<circle cx="345.4" cy="133.5" r="2.1"/>
<circle cx="322.4" cy="150.2" r="2.1"/>
<circle cx="318.5" cy="88.0" r="2.1"/>
<circle cx="339.9" cy="92.6" r="2.1"/>
<circle cx="323.1" cy="108.8" r="2.1"/>
<circle cx="350.7" cy="135.6" r="2.1"/>
<circle cx="305.7" cy="125.2" r="2.1"/>
<circle cx="313.7" cy="127.1" r="2.1"/>
<circle cx="363.1" cy="143.1" r="2.1"/>
<circle cx="325.4" cy="92.1" r="2.1"/>
<circle cx="299.6" cy="102.0" r="2.1"/>
<circle cx="304.0" cy="77.8" r="2.1"/>
<circle cx="347.4" cy="159.7" r="2.1"/>
<circle cx="359.2" cy="66.8" r="2.1"/>
<circle cx="321.4" cy="157.0" r="2.1"/>
<circle cx="368.8" cy="95.9" r="2.1"/>
<circle cx="367.2" cy="109.7" r="2.1"/>
<circle cx="375.9" cy="147.9" r="2.1"/>
<circle cx="338.1" cy="83.9" r="2.1"/>
<circle cx="364.6" cy="125.7" r="2.1"/>
<circle cx="298.6" cy="133.3" r="2.1"/>
<circle cx="375.7" cy="144.2" r="2.1"/>
<circle cx="328.4" cy="78.5" r="2.1"/>
<circle cx="344.2" cy="116.9" r="2.1"/>
<circle cx="379.9" cy="86.4" r="2.1"/>
<circle cx="381.8" cy="145.2" r="2.1"/>
<circle cx="344.0" cy="71.7" r="2.1"/>
<circle cx="326.9" cy="74.8" r="2.1"/>
<circle cx="363.2" cy="120.1" r="2.1"/>
<circle cx="359.1" cy="114.1" r="2.1"/>
<circle cx="302.1" cy="106.3" r="2.1"/>
<circle cx="366.6" cy="142.4" r="2.1"/>
<circle cx="348.6" cy="132.2" r="2.1"/>
<circle cx="391.4" cy="107.0" r="2.1"/>
<circle cx="385.0" cy="139.3" r="2.1"/>
<circle cx="354.8" cy="106.0" r="2.1"/>
<circle cx="345.4" cy="73.4" r="2.1"/>
<circle cx="311.8" cy="116.4" r="2.1"/>
<circle cx="306.9" cy="126.5" r="2.1"/>
<circle cx="383.7" cy="113.5" r="2.1"/>
<circle cx="367.2" cy="72.5" r="2.1"/>
<circle cx="320.0" cy="116.6" r="2.1"/>
<circle cx="303.5" cy="136.0" r="2.1"/>
<circle cx="354.1" cy="130.5" r="2.1"/>
<circle cx="380.5" cy="113.7" r="2.1"/>
<circle cx="358.3" cy="61.6" r="2.1"/>
<circle cx="371.1" cy="75.2" r="2.1"/>
<circle cx="306.6" cy="134.2" r="2.1"/>
<circle cx="300.2" cy="108.9" r="2.1"/>
<circle cx="360.1" cy="59.6" r="2.1"/>
<circle cx="365.3" cy="95.5" r="2.1"/>
<circle cx="350.2" cy="64.1" r="2.1"/>
<circle cx="301.6" cy="137.2" r="2.1"/>
<circle cx="379.2" cy="75.0" r="2.1"/>
<circle cx="346.9" cy="65.3" r="2.1"/>
<circle cx="302.8" cy="136.4" r="2.1"/>
<circle cx="383.5" cy="129.7" r="2.1"/>
<circle cx="311.0" cy="116.1" r="2.1"/>
<circle cx="338.6" cy="114.4" r="2.1"/>
<circle cx="311.3" cy="79.7" r="2.1"/>
<circle cx="366.5" cy="101.1" r="2.1"/>
<circle cx="318.9" cy="147.5" r="2.1"/>
<circle cx="302.3" cy="91.4" r="2.1"/>
<circle cx="311.7" cy="135.2" r="2.1"/>
<circle cx="308.2" cy="67.9" r="2.1"/>
<circle cx="345.3" cy="64.9" r="2.1"/>
<circle cx="394.9" cy="117.6" r="2.1"/>
<circle cx="339.0" cy="67.7" r="2.1"/>
<circle cx="319.7" cy="125.9" r="2.1"/>
<circle cx="346.1" cy="121.4" r="2.1"/>
<circle cx="369.0" cy="129.2" r="2.1"/>
<circle cx="364.4" cy="94.9" r="2.1"/>
<circle cx="302.0" cy="108.0" r="2.1"/>
<circle cx="293.7" cy="88.0" r="2.1"/>
<circle cx="307.1" cy="68.9" r="2.1"/>
<circle cx="385.1" cy="132.4" r="2.1"/>
<circle cx="344.4" cy="68.3" r="2.1"/>
<circle cx="352.4" cy="105.1" r="2.1"/>
<circle cx="320.7" cy="113.8" r="2.1"/>
<circle cx="319.8" cy="110.6" r="2.1"/>
<circle cx="381.4" cy="125.2" r="2.1"/>
<circle cx="295.9" cy="135.1" r="2.1"/>
<circle cx="310.0" cy="87.4" r="2.1"/>
<circle cx="334.7" cy="141.8" r="2.1"/>
<circle cx="301.4" cy="93.7" r="2.1"/>
<circle cx="336.0" cy="81.9" r="2.1"/>
<circle cx="371.3" cy="112.6" r="2.1"/>
<circle cx="367.8" cy="117.1" r="2.1"/>
<circle cx="342.6" cy="88.6" r="2.1"/>
<circle cx="369.0" cy="89.8" r="2.1"/>
<circle cx="386.4" cy="124.5" r="2.1"/>
<circle cx="392.5" cy="91.6" r="2.1"/>
<circle cx="354.1" cy="101.8" r="2.1"/>
<circle cx="307.0" cy="115.0" r="2.1"/>
</g>
<g transform="translate(78,240)"><rect x="-42" y="-15" width="84" height="24" rx="2" fill="#2b211a"/><text x="0" y="3" fill="#f5efde" font-family="Alegreya SC, EB Garamond, Georgia, serif" font-size="15" letter-spacing="1.6" text-anchor="middle">ρ = 2.5</text></g>
<g transform="translate(210,240)"><rect x="-42" y="-15" width="84" height="24" rx="2" fill="#6c1d1a"/><text x="0" y="3" fill="#f5efde" font-family="Alegreya SC, EB Garamond, Georgia, serif" font-size="15" letter-spacing="1.6" text-anchor="middle">ρ = 3.5</text></g>
<g transform="translate(342,240)"><rect x="-42" y="-15" width="84" height="24" rx="2" fill="#2b211a"/><text x="0" y="3" fill="#f5efde" font-family="Alegreya SC, EB Garamond, Georgia, serif" font-size="15" letter-spacing="1.6" text-anchor="middle">ρ = 4.3</text></g>
</svg>