<svg xmlns="http://www.w3.org/2000/svg" viewBox="0 0 720 115">
<g class="fragment" data-fragment-index="1">
<g fill="#2b211a" stroke="none">
<circle cx="83" cy="22" r="1.9"/>
<circle cx="91" cy="17" r="1.9"/>
<circle cx="102" cy="20" r="1.9"/>
<circle cx="108" cy="32" r="1.9"/>
<circle cx="102" cy="39" r="1.9"/>
<circle cx="90" cy="39" r="1.9"/>
<circle cx="82" cy="32" r="1.9"/>
<circle cx="95" cy="29" r="1.9"/>
</g>
<g stroke="#2b211a" stroke-width="1.0" stroke-linecap="round" fill="none">
<line x1="82" y1="60" x2="95" y2="56"/>
<line x1="95" y1="56" x2="107" y2="62"/>
<line x1="82" y1="60" x2="88" y2="76"/>
<line x1="88" y1="76" x2="104" y2="76"/>
<line x1="107" y1="62" x2="104" y2="76"/>
<line x1="95" y1="56" x2="88" y2="76"/>
</g>
<g fill="#f5efde" stroke="#2b211a" stroke-width="0.9">
<circle cx="82" cy="60" r="2.8"/>
<circle cx="95" cy="56" r="2.8"/>
<circle cx="107" cy="62" r="2.8"/>
<circle cx="88" cy="76" r="2.8"/>
<circle cx="104" cy="76" r="2.8"/>
</g>
<text x="95" y="94" fill="#57473a" font-family="Alegreya SC, EB Garamond, Georgia, serif" font-size="10" letter-spacing="1.3" text-anchor="middle">A SHAPE</text>
</g>
<g class="fragment" data-fragment-index="2">
<g stroke="#6c1d1a" fill="none" stroke-width="0.9">
<line x1="135" y1="48" x2="215" y2="48"/>
<path d="M 207 43 L 215 48 L 207 53"/>
</g>
<rect x="238" y="26" width="44" height="44" rx="2" fill="none" stroke="#2b211a" stroke-width="1.2"/>
<text x="260" y="56" fill="#2b211a" font-family="EB Garamond, Georgia, serif" font-style="italic" font-size="24" text-anchor="middle">Φ</text>
<text x="260" y="94" fill="#57473a" font-family="Alegreya SC, EB Garamond, Georgia, serif" font-size="10" letter-spacing="1.3" text-anchor="middle">FEATURE MAP</text>
</g>
<g class="fragment" data-fragment-index="3">
<g stroke="#6c1d1a" fill="none" stroke-width="0.9">
<line x1="295" y1="48" x2="395" y2="48"/>
<path d="M 387 43 L 395 48 L 387 53"/>
</g>
<g stroke="#2b211a" fill="none" stroke-width="1.0">
<path d="M 435 28 L 428 28 L 428 68 L 435 68"/>
<path d="M 465 28 L 472 28 L 472 68 L 465 68"/>
</g>
<g fill="#2b211a" stroke="none" font-family="EB Garamond, Georgia, serif" font-size="11" text-anchor="middle">
<text x="450" y="42">v₁</text>
<text x="450" y="52">v₂</text>
<text x="450" y="62">⋮</text>
</g>
<text x="450" y="94" fill="#57473a" font-family="EB Garamond, Georgia, serif" font-style="italic" font-size="12" text-anchor="middle">ℝ<tspan baseline-shift="super" font-size="0.7em" dx="1">ℓ</tspan></text>
</g>
<g class="fragment" data-fragment-index="4">
<g stroke="#6c1d1a" fill="none" stroke-width="0.9">
<line x1="485" y1="48" x2="565" y2="48"/>
<path d="M 557 43 L 565 48 L 557 53"/>
</g>
<polygon points="587,24 643,24 643,34 587,62" fill="#6c1d1a" fill-opacity="0.10" stroke="none"/>
<polygon points="587,62 643,34 643,72 587,72" fill="#2b211a" fill-opacity="0.07" stroke="none"/>
<rect x="587" y="24" width="56" height="48" fill="none" stroke="#c8b894" stroke-width="0.6" stroke-dasharray="2 2"/>
<line x1="587" y1="62" x2="643" y2="34" stroke="#2b211a" stroke-width="1.0" stroke-dasharray="3 2"/>
<g fill="#6c1d1a" stroke="none">
<circle cx="598" cy="35" r="1.9"/>
<circle cx="604" cy="42" r="1.9"/>
<circle cx="609" cy="34" r="1.9"/>
<circle cx="602" cy="46" r="1.9"/>
<circle cx="608" cy="48" r="1.9"/>
</g>
<g fill="#2b211a" stroke="none">
<circle cx="619" cy="52" r="1.9"/>
<circle cx="626" cy="50" r="1.9"/>
<circle cx="632" cy="57" r="1.9"/>
<circle cx="622" cy="59" r="1.9"/>
<circle cx="629" cy="61" r="1.9"/>
</g>
<text x="615" y="84" fill="#57473a" font-family="Alegreya SC, EB Garamond, Georgia, serif" font-size="9" letter-spacing="1.1" text-anchor="middle">CLASSIFIER IN</text>
<text x="615" y="95" fill="#57473a" font-family="Alegreya SC, EB Garamond, Georgia, serif" font-size="9" letter-spacing="1.1" text-anchor="middle">HILBERT SPACE</text>
</g>
</svg>