    <svg xmlns="http://www.w3.org/2000/svg" class="masthead-emblem" viewBox="0 0 360 130" role="img" aria-label="Howrah Bridge, Calcutta">
      <title>Howrah Bridge, Calcutta</title>
      <g stroke="#2b211a" fill="none" stroke-linecap="round" stroke-linejoin="round">
        <!-- LEFT PYLON: slender vertical with peaked top and finial -->
        <g stroke-width="1.0">
          <line x1="58" y1="14" x2="58" y2="106" />
          <line x1="66" y1="14" x2="66" y2="106" />
          <!-- peaked top -->
          <line x1="58" y1="14" x2="62" y2="6" />
          <line x1="66" y1="14" x2="62" y2="6" />
          <line x1="62" y1="6"  x2="62" y2="2" />
          <!-- internal pylon horizontals -->
          <line x1="58" y1="26" x2="66" y2="26" />
          <line x1="58" y1="40" x2="66" y2="40" />
          <line x1="58" y1="54" x2="66" y2="54" />
          <line x1="58" y1="68" x2="66" y2="68" />
          <line x1="58" y1="82" x2="66" y2="82" />
          <line x1="58" y1="94" x2="66" y2="94" />
        </g>
        <!-- LEFT PIER BASE: triangular foundation below deck -->
        <g stroke-width="1.0">
          <line x1="38" y1="120" x2="58" y2="106" />
          <line x1="86" y1="120" x2="66" y2="106" />
          <line x1="38" y1="120" x2="86" y2="120" />
        </g>
        <g stroke-width="0.5">
          <line x1="44" y1="120" x2="62" y2="106" />
          <line x1="80" y1="120" x2="62" y2="106" />
          <line x1="50" y1="115" x2="74" y2="115" />
        </g>
        <!-- RIGHT PYLON (mirror) -->
        <g stroke-width="1.0">
          <line x1="294" y1="14" x2="294" y2="106" />
          <line x1="302" y1="14" x2="302" y2="106" />
          <line x1="294" y1="14" x2="298" y2="6" />
          <line x1="302" y1="14" x2="298" y2="6" />
          <line x1="298" y1="6"  x2="298" y2="2" />
          <line x1="294" y1="26" x2="302" y2="26" />
          <line x1="294" y1="40" x2="302" y2="40" />
          <line x1="294" y1="54" x2="302" y2="54" />
          <line x1="294" y1="68" x2="302" y2="68" />
          <line x1="294" y1="82" x2="302" y2="82" />
          <line x1="294" y1="94" x2="302" y2="94" />
        </g>
        <!-- RIGHT PIER BASE -->
        <g stroke-width="1.0">
          <line x1="274" y1="120" x2="294" y2="106" />
          <line x1="322" y1="120" x2="302" y2="106" />
          <line x1="274" y1="120" x2="322" y2="120" />
        </g>
        <g stroke-width="0.5">
          <line x1="280" y1="120" x2="298" y2="106" />
          <line x1="316" y1="120" x2="298" y2="106" />
          <line x1="286" y1="115" x2="310" y2="115" />
        </g>
        <!-- UPPER CHORD: smooth descending arc from each pylon top to center span -->
        <g stroke-width="1.4">
          <path d="M 66 14 Q 130 22 180 70" />
          <path d="M 180 70 Q 230 22 294 14" />
        </g>
        <!-- LOWER CHORD: horizontal at deck level, end-to-end -->
        <g stroke-width="1.0">
          <line x1="66" y1="98" x2="294" y2="98" />
        </g>
        <!-- MANY VERTICAL POSTS — left half: rising x, descending y to meet upper chord arc -->
        <g stroke-width="0.55">
          <line x1="78"  y1="20" x2="78"  y2="98" />
          <line x1="90"  y1="26" x2="90"  y2="98" />
          <line x1="102" y1="33" x2="102" y2="98" />
          <line x1="114" y1="40" x2="114" y2="98" />
          <line x1="126" y1="48" x2="126" y2="98" />
          <line x1="138" y1="55" x2="138" y2="98" />
          <line x1="150" y1="61" x2="150" y2="98" />
          <line x1="162" y1="66" x2="162" y2="98" />
          <line x1="174" y1="69" x2="174" y2="98" />
          <line x1="186" y1="69" x2="186" y2="98" />
          <line x1="198" y1="66" x2="198" y2="98" />
          <line x1="210" y1="61" x2="210" y2="98" />
          <line x1="222" y1="55" x2="222" y2="98" />
          <line x1="234" y1="48" x2="234" y2="98" />
          <line x1="246" y1="40" x2="246" y2="98" />
          <line x1="258" y1="33" x2="258" y2="98" />
          <line x1="270" y1="26" x2="270" y2="98" />
          <line x1="282" y1="20" x2="282" y2="98" />
        </g>
        <!-- DIAGONAL LATTICE — sloped diagonals between adjacent posts (zig pattern) -->
        <g stroke-width="0.45" opacity="0.85">
          <line x1="66"  y1="14" x2="78"  y2="98" />
          <line x1="78"  y1="20" x2="90"  y2="98" />
          <line x1="90"  y1="26" x2="102" y2="98" />
          <line x1="102" y1="33" x2="114" y2="98" />
          <line x1="114" y1="40" x2="126" y2="98" />
          <line x1="126" y1="48" x2="138" y2="98" />
          <line x1="138" y1="55" x2="150" y2="98" />
          <line x1="150" y1="61" x2="162" y2="98" />
          <line x1="162" y1="66" x2="174" y2="98" />
          <line x1="174" y1="69" x2="180" y2="98" />
          <line x1="180" y1="70" x2="186" y2="98" />
          <line x1="186" y1="69" x2="198" y2="98" />
          <line x1="198" y1="66" x2="210" y2="98" />
          <line x1="210" y1="61" x2="222" y2="98" />
          <line x1="222" y1="55" x2="234" y2="98" />
          <line x1="234" y1="48" x2="246" y2="98" />
          <line x1="246" y1="40" x2="258" y2="98" />
          <line x1="258" y1="33" x2="270" y2="98" />
          <line x1="270" y1="26" x2="282" y2="98" />
          <line x1="282" y1="20" x2="294" y2="98" />
        </g>
        <!-- HORIZONTAL MID-CHORD running along middle of truss for added detail -->
        <g stroke-width="0.45" opacity="0.7">
          <path d="M 66 56 Q 130 60 180 84" />
          <path d="M 180 84 Q 230 60 294 56" />
        </g>
        <!-- DECK -->
        <g stroke-width="1.6">
          <line x1="2" y1="106" x2="358" y2="106" />
        </g>
        <!-- HOOGHLY RIVER ripples -->
        <g stroke-width="0.5" stroke-dasharray="5 3" opacity="0.5">
          <line x1="0"   y1="124" x2="32"  y2="124" />
          <line x1="100" y1="124" x2="270" y2="124" />
          <line x1="328" y1="124" x2="360" y2="124" />
        </g>
      </g>
    </svg>
