<svg xmlns="http://www.w3.org/2000/svg" viewBox="0 0 600 600" preserveAspectRatio="xMidYMid meet">
  <g stroke-linecap="round">
    <g stroke="#2b211a" fill="none" stroke-width="0.45" opacity="0.55">
      <line x1="60" y1="490" x2="110" y2="490"/>
      <line x1="60" y1="440" x2="160" y2="440"/>
      <line x1="60" y1="390" x2="210" y2="390"/>
      <line x1="60" y1="340" x2="260" y2="340"/>
      <line x1="60" y1="290" x2="310" y2="290"/>
      <line x1="60" y1="240" x2="360" y2="240"/>
      <line x1="60" y1="190" x2="410" y2="190"/>
      <line x1="60" y1="140" x2="460" y2="140"/>
      <line x1="60" y1="90" x2="510" y2="90"/>
      <line x1="60" y1="40" x2="560" y2="40"/>
      <line x1="110" y1="40" x2="110" y2="490"/>
      <line x1="160" y1="40" x2="160" y2="440"/>
      <line x1="210" y1="40" x2="210" y2="390"/>
      <line x1="260" y1="40" x2="260" y2="340"/>
      <line x1="310" y1="40" x2="310" y2="290"/>
      <line x1="360" y1="40" x2="360" y2="240"/>
      <line x1="410" y1="40" x2="410" y2="190"/>
      <line x1="460" y1="40" x2="460" y2="140"/>
      <line x1="510" y1="40" x2="510" y2="90"/>
      <line x1="560" y1="40" x2="560" y2="40"/>
    </g>
    <g stroke="#2b211a" fill="none" stroke-width="0.8" opacity="0.7">
      <line x1="60" y1="540" x2="560" y2="540"/>
      <line x1="60" y1="540" x2="60" y2="40"/>
      <path d="M 553 536 L 560 540 L 553 544"/>
      <path d="M 56 47 L 60 40 L 64 47"/>
    </g>
    <g fill="#2b211a" stroke="none" font-family="EB Garamond, Georgia, serif" font-style="italic" font-size="20" opacity="0.7">
      <text x="565" y="545" text-anchor="start">b</text>
      <text x="56" y="37" text-anchor="end">d</text>
    </g>
    <line x1="60" y1="540" x2="560" y2="40" fill="none" stroke="#2b211a" stroke-width="0.7" stroke-dasharray="6 4" opacity="0.7"/>
    <g fill="#2b211a" stroke="none" opacity="0.85">
      <circle cx="60" cy="490" r="3.4"/>
      <circle cx="60" cy="440" r="3.4"/>
      <circle cx="60" cy="390" r="3.4"/>
      <circle cx="60" cy="340" r="3.4"/>
      <circle cx="60" cy="290" r="3.4"/>
      <circle cx="60" cy="240" r="3.4"/>
      <circle cx="60" cy="190" r="3.4"/>
      <circle cx="60" cy="140" r="3.4"/>
      <circle cx="60" cy="90" r="3.4"/>
      <circle cx="60" cy="40" r="3.4"/>
      <circle cx="110" cy="440" r="3.4"/>
      <circle cx="110" cy="390" r="3.4"/>
      <circle cx="110" cy="340" r="3.4"/>
      <circle cx="110" cy="290" r="3.4"/>
      <circle cx="110" cy="240" r="3.4"/>
      <circle cx="110" cy="190" r="3.4"/>
      <circle cx="110" cy="140" r="3.4"/>
      <circle cx="110" cy="90" r="3.4"/>
      <circle cx="110" cy="40" r="3.4"/>
      <circle cx="160" cy="390" r="3.4"/>
      <circle cx="160" cy="340" r="3.4"/>
      <circle cx="160" cy="290" r="3.4"/>
      <circle cx="160" cy="240" r="3.4"/>
      <circle cx="160" cy="190" r="3.4"/>
      <circle cx="160" cy="140" r="3.4"/>
      <circle cx="160" cy="90" r="3.4"/>
      <circle cx="160" cy="40" r="3.4"/>
      <circle cx="210" cy="340" r="3.4"/>
      <circle cx="210" cy="290" r="3.4"/>
      <circle cx="210" cy="240" r="3.4"/>
      <circle cx="210" cy="190" r="3.4"/>
      <circle cx="210" cy="140" r="3.4"/>
      <circle cx="210" cy="90" r="3.4"/>
      <circle cx="210" cy="40" r="3.4"/>
      <circle cx="260" cy="290" r="3.4"/>
      <circle cx="260" cy="240" r="3.4"/>
      <circle cx="260" cy="190" r="3.4"/>
      <circle cx="260" cy="140" r="3.4"/>
      <circle cx="260" cy="90" r="3.4"/>
      <circle cx="260" cy="40" r="3.4"/>
      <circle cx="310" cy="240" r="3.4"/>
      <circle cx="310" cy="190" r="3.4"/>
      <circle cx="310" cy="140" r="3.4"/>
      <circle cx="310" cy="90" r="3.4"/>
      <circle cx="310" cy="40" r="3.4"/>
      <circle cx="360" cy="190" r="3.4"/>
      <circle cx="360" cy="140" r="3.4"/>
      <circle cx="360" cy="90" r="3.4"/>
      <circle cx="360" cy="40" r="3.4"/>
      <circle cx="410" cy="140" r="3.4"/>
      <circle cx="410" cy="90" r="3.4"/>
      <circle cx="410" cy="40" r="3.4"/>
      <circle cx="460" cy="90" r="3.4"/>
      <circle cx="460" cy="40" r="3.4"/>
      <circle cx="510" cy="40" r="3.4"/>
    </g>
  </g></svg>