<svg xmlns="http://www.w3.org/2000/svg" viewBox="0 0 600 600" preserveAspectRatio="xMidYMid meet">
  <g stroke-linecap="round">
    <g stroke="#2b211a" fill="none" stroke-width="0.8" opacity="0.7">
      <line x1="60" y1="540" x2="560" y2="540"/>
      <line x1="60" y1="540" x2="60" y2="40"/>
      <path d="M 553 536 L 560 540 L 553 544"/>
      <path d="M 56 47 L 60 40 L 64 47"/>
    </g>
    <g fill="#2b211a" stroke="none" font-family="EB Garamond, Georgia, serif" font-style="italic" font-size="20" opacity="0.7">
      <text x="565" y="545" text-anchor="start">b</text>
      <text x="56" y="37" text-anchor="end">d</text>
    </g>
    <line x1="60" y1="540" x2="560" y2="40" fill="none" stroke="#2b211a" stroke-width="0.7" stroke-dasharray="6 4" opacity="0.7"/>
    <g fill="#2b211a" stroke="none" opacity="0.75">
      <circle cx="110" cy="470" r="3.0"/>
      <circle cx="150" cy="430" r="3.0"/>
      <circle cx="190" cy="390" r="3.0"/>
      <circle cx="230" cy="350" r="3.0"/>
      <circle cx="270" cy="310" r="3.0"/>
      <circle cx="310" cy="270" r="3.0"/>
      <circle cx="350" cy="230" r="3.0"/>
      <circle cx="390" cy="190" r="3.0"/>
      <circle cx="180" cy="360" r="3.0"/>
      <circle cx="240" cy="320" r="3.0"/>
    </g>
    <g>
      <circle cx="130" cy="180" r="9" fill="none" stroke="#6c1d1a" stroke-width="0.6" opacity="0.5"/>
      <circle cx="130" cy="180" r="5" fill="#6c1d1a" stroke="none" opacity="0.95"/>
      <circle cx="200" cy="130" r="9" fill="none" stroke="#6c1d1a" stroke-width="0.6" opacity="0.5"/>
      <circle cx="200" cy="130" r="5" fill="#6c1d1a" stroke="none" opacity="0.95"/>
      <circle cx="170" cy="250" r="9" fill="none" stroke="#6c1d1a" stroke-width="0.6" opacity="0.5"/>
      <circle cx="170" cy="250" r="5" fill="#6c1d1a" stroke="none" opacity="0.95"/>
      <circle cx="260" cy="200" r="9" fill="none" stroke="#6c1d1a" stroke-width="0.6" opacity="0.5"/>
      <circle cx="260" cy="200" r="5" fill="#6c1d1a" stroke="none" opacity="0.95"/>
      <circle cx="220" cy="290" r="9" fill="none" stroke="#6c1d1a" stroke-width="0.6" opacity="0.5"/>
      <circle cx="220" cy="290" r="5" fill="#6c1d1a" stroke="none" opacity="0.95"/>
      <circle cx="310" cy="200" r="9" fill="none" stroke="#6c1d1a" stroke-width="0.6" opacity="0.5"/>
      <circle cx="310" cy="200" r="5" fill="#6c1d1a" stroke="none" opacity="0.95"/>
    </g>
  </g></svg>