<svg xmlns="http://www.w3.org/2000/svg" class="wax-seal" viewBox="0 0 80 80" role="img" aria-label="Author's seal">
  <defs>
    <style>
      .seal-ring  { stroke: currentColor; fill: none; stroke-width: 1.3; }
      .seal-inner { stroke: currentColor; fill: none; stroke-width: 0.45; }
      .seal-mark  { fill: currentColor; stroke: none; }
      .seal-thin  { stroke: currentColor; fill: none; stroke-width: 0.55; }
      .seal-mono  { font-family: 'Noto Serif Bengali', 'Bengali Sangam MN', 'Kalpurush', 'Vrinda', 'Lohit Bengali', 'Sagar', 'Akaash', serif; font-weight: 700; font-size: 12px; fill: currentColor; }
      .seal-band  { font-family: 'Alegreya SC', 'EB Garamond', Georgia, serif; font-size: 4.6px; letter-spacing: 0.22em; fill: currentColor; }
    </style>
    <path id="seal-top"    d="M 11 40 A 29 29 0 0 1 69 40" />
    <path id="seal-bottom" d="M 11 40 A 29 29 0 0 0 69 40" />
  </defs>
  <circle class="seal-ring"  cx="40" cy="40" r="36" />
  <circle class="seal-inner" cx="40" cy="40" r="33" />
  <circle class="seal-inner" cx="40" cy="40" r="22" />
  <text class="seal-band">
    <textPath href="#seal-top" startOffset="50%" text-anchor="middle">SVSHOVAN  MAJHI</textPath>
  </text>
  <text class="seal-band">
    <textPath href="#seal-bottom" startOffset="50%" text-anchor="middle">·  ANNO  MMXXVI  ·</textPath>
  </text>
  <g>
    <polygon class="seal-mark" opacity="0.16" points="35,33 40,24 40,41" />
    <polygon class="seal-mark" opacity="0.16" points="40,24 45,33 40,41" />
    <line class="seal-thin" x1="35" y1="33" x2="40" y2="24" />
    <line class="seal-thin" x1="40" y1="24" x2="45" y2="33" />
    <line class="seal-thin" x1="35" y1="33" x2="40" y2="41" />
    <line class="seal-thin" x1="45" y1="33" x2="40" y2="41" />
    <line class="seal-thin" x1="40" y1="24" x2="40" y2="41" />
    <line class="seal-thin" x1="35" y1="33" x2="45" y2="33" />
    <circle class="seal-mark" cx="35" cy="33" r="0.95" />
    <circle class="seal-mark" cx="40" cy="24" r="0.95" />
    <circle class="seal-mark" cx="45" cy="33" r="0.95" />
    <circle class="seal-mark" cx="40" cy="41" r="0.95" />
  </g>
  <text class="seal-mono" x="40" y="51" text-anchor="middle">সুশোভন</text>
  <g class="seal-mark">
    <circle cx="40" cy="56" r="0.6" />
    <circle cx="37" cy="59" r="0.6" />
    <circle cx="43" cy="59" r="0.6" />
  </g>
  <circle class="seal-mark" cx="9"  cy="40" r="0.95" />
  <circle class="seal-mark" cx="71" cy="40" r="0.95" />
  <g class="seal-mark">
    <circle cx="14" cy="14" r="0.55" />
    <circle cx="66" cy="14" r="0.55" />
    <circle cx="14" cy="66" r="0.55" />
    <circle cx="66" cy="66" r="0.55" />
  </g>
</svg>
